<svg width="459" height="52" viewBox="0 0 459 52" fill="none" xmlns="http://www.w3.org/2000/svg">
<path d="M83.2921 33.2323L92.8875 9.01538H105.017V10.6769C104.103 10.6769 103.355 10.7738 102.774 10.9677C102.22 11.1338 101.791 11.4523 101.486 11.9231C101.181 12.3938 100.974 13.0446 100.863 13.8754C100.78 14.6785 100.738 15.7031 100.738 16.9492V33.0662C100.738 34.4508 100.794 35.5446 100.904 36.3477C101.015 37.1508 101.237 37.7738 101.569 38.2169C101.901 38.66 102.372 38.9508 102.981 39.0892C103.618 39.2277 104.449 39.3108 105.474 39.3385V41H89.8551V39.3385C90.8798 39.3108 91.6967 39.2277 92.3059 39.0892C92.9428 38.9231 93.4275 38.6323 93.7598 38.2169C94.1198 37.8015 94.3551 37.22 94.4659 36.4723C94.5767 35.6969 94.6321 34.6585 94.6321 33.3569V13.9169H94.4244L83.2505 41.4154H80.1767L68.629 13.9169H68.4628V33.0662C68.4628 34.4508 68.5182 35.5446 68.629 36.3477C68.7398 37.1508 68.9613 37.7738 69.2936 38.2169C69.6259 38.66 70.0967 38.9508 70.7059 39.0892C71.3428 39.2277 72.1736 39.3108 73.1982 39.3385V41H60.4044V39.3385C61.429 39.3108 62.2598 39.2277 62.8967 39.0892C63.5336 38.9231 64.0182 38.6323 64.3505 38.2169C64.7105 37.8015 64.9459 37.22 65.0567 36.4723C65.1674 35.6969 65.2228 34.6585 65.2228 33.3569V16.6585C65.2228 15.4954 65.1674 14.5262 65.0567 13.7508C64.9459 12.9754 64.7382 12.3662 64.4336 11.9231C64.129 11.4523 63.6859 11.1338 63.1044 10.9677C62.5505 10.7738 61.8028 10.6769 60.8613 10.6769V9.01538H73.4475L83.1259 33.2323H83.2921ZM114.335 47.5215C114.03 48.1308 113.643 48.6985 113.172 49.2246C112.729 49.7508 112.216 50.1938 111.635 50.5538C111.081 50.9415 110.5 51.2462 109.89 51.4677C109.281 51.6892 108.672 51.8 108.063 51.8C107.149 51.8 106.415 51.5785 105.861 51.1354C105.307 50.6923 105.03 50.0969 105.03 49.3492C105.03 48.6569 105.266 48.1169 105.736 47.7292C106.235 47.3415 107.024 47.1062 108.104 47.0231C110.569 46.8292 112.161 46.0538 112.881 44.6969L114.003 42.5369L106.65 24.3431C106.318 23.54 106.027 22.9031 105.778 22.4323C105.556 21.9615 105.307 21.6015 105.03 21.3523C104.753 21.0754 104.435 20.8954 104.075 20.8123C103.715 20.7292 103.272 20.6738 102.746 20.6462V18.9846H115.332V20.6462C114.252 20.6462 113.49 20.7569 113.047 20.9785C112.632 21.1723 112.424 21.5462 112.424 22.1C112.424 22.3215 112.452 22.5846 112.507 22.8892C112.59 23.1662 112.687 23.4569 112.798 23.7615L117.035 35.8908H117.201L120.773 27.7908C121.133 26.9323 121.438 26.2262 121.687 25.6723C121.936 25.0908 122.116 24.6062 122.227 24.2185C122.366 23.8031 122.463 23.4708 122.518 23.2215C122.573 22.9723 122.601 22.7231 122.601 22.4738C122.601 21.7538 122.393 21.2692 121.978 21.02C121.59 20.7708 120.787 20.6462 119.569 20.6462V18.9846H129.58V20.6462C129.026 20.6462 128.555 20.7292 128.167 20.8954C127.78 21.0338 127.378 21.3385 126.963 21.8092C126.575 22.28 126.132 22.9862 125.633 23.9277C125.163 24.8415 124.567 26.06 123.847 27.5831L114.335 47.5215ZM152.834 8.6C155.327 8.6 157.653 9.02923 159.813 9.88769C161.973 10.7462 163.842 11.9231 165.42 13.4185C167.027 14.9138 168.287 16.6723 169.2 18.6938C170.114 20.7154 170.571 22.9031 170.571 25.2569C170.571 27.5 170.1 29.6046 169.159 31.5708C168.245 33.5369 166.985 35.2538 165.379 36.7215C163.8 38.1615 161.931 39.3108 159.771 40.1692C157.611 41 155.299 41.4154 152.834 41.4154C150.37 41.4154 148.057 41 145.897 40.1692C143.737 39.3108 141.854 38.1615 140.248 36.7215C138.642 35.2538 137.382 33.5369 136.468 31.5708C135.554 29.6046 135.097 27.5 135.097 25.2569C135.097 22.9031 135.554 20.7154 136.468 18.6938C137.382 16.6723 138.628 14.9138 140.207 13.4185C141.813 11.9231 143.696 10.7462 145.856 9.88769C148.016 9.02923 150.342 8.6 152.834 8.6ZM152.834 38.7154C154.44 38.7154 155.894 38.4108 157.196 37.8015C158.497 37.1646 159.605 36.2785 160.519 35.1431C161.433 33.98 162.125 32.5815 162.596 30.9477C163.094 29.2862 163.344 27.4308 163.344 25.3815C163.344 23.2215 163.094 21.2831 162.596 19.5662C162.125 17.8215 161.433 16.34 160.519 15.1215C159.605 13.8754 158.497 12.9338 157.196 12.2969C155.894 11.6323 154.44 11.3 152.834 11.3C151.2 11.3 149.733 11.6323 148.431 12.2969C147.157 12.9338 146.064 13.8754 145.15 15.1215C144.236 16.34 143.53 17.8215 143.031 19.5662C142.56 21.2831 142.325 23.2215 142.325 25.3815C142.325 27.4308 142.56 29.2862 143.031 30.9477C143.53 32.5815 144.236 33.98 145.15 35.1431C146.064 36.2785 147.157 37.1646 148.431 37.8015C149.733 38.4108 151.2 38.7154 152.834 38.7154ZM179.32 34.1877C179.32 35.2954 179.361 36.1815 179.445 36.8462C179.528 37.5108 179.694 38.0231 179.943 38.3831C180.192 38.7431 180.552 38.9923 181.023 39.1308C181.494 39.2415 182.131 39.3108 182.934 39.3385V41H169.849V39.3385C170.625 39.3108 171.248 39.2277 171.718 39.0892C172.217 38.9231 172.591 38.6738 172.84 38.3415C173.117 37.9815 173.297 37.4969 173.38 36.8877C173.491 36.2508 173.546 35.4477 173.546 34.4785V17.3231C173.546 15.7169 173.518 14.4015 173.463 13.3769C173.408 12.3246 173.338 11.6046 173.255 11.2169C173.117 10.5246 172.798 10.0677 172.3 9.84615C171.829 9.62461 170.957 9.51384 169.683 9.51384V8.10153L179.32 6.52307V34.1877ZM200.898 38.3415H200.732C198.821 40.3908 196.342 41.4154 193.296 41.4154C191.718 41.4154 190.264 41.1385 188.935 40.5846C187.633 40.0308 186.498 39.2554 185.529 38.2585C184.587 37.2615 183.853 36.0846 183.327 34.7277C182.801 33.3431 182.538 31.82 182.538 30.1585C182.538 28.4969 182.801 26.96 183.327 25.5477C183.881 24.1354 184.615 22.9169 185.529 21.8923C186.47 20.84 187.578 20.0231 188.852 19.4415C190.153 18.86 191.552 18.5692 193.047 18.5692C194.432 18.5692 195.65 18.7769 196.702 19.1923C197.782 19.6077 198.724 20.3138 199.527 21.3108H199.693V17.78C199.693 16.1462 199.666 14.7477 199.61 13.5846C199.582 12.3938 199.527 11.6185 199.444 11.2585C199.306 10.6769 198.876 10.2615 198.156 10.0123C197.464 9.73538 196.384 9.59692 194.916 9.59692V8.18461L205.426 6.52307V30.2831C205.426 32.36 205.439 33.9662 205.467 35.1015C205.522 36.2092 205.606 37.0538 205.716 37.6354C205.772 37.9954 205.855 38.2862 205.966 38.5077C206.076 38.7292 206.242 38.9092 206.464 39.0477C206.686 39.1585 206.976 39.2415 207.336 39.2969C207.724 39.3246 208.209 39.3385 208.79 39.3385V40.9585L200.898 41.4154V38.3415ZM199.61 29.0785C199.61 28.0262 199.499 27.0569 199.278 26.1708C199.056 25.2569 198.724 24.4538 198.281 23.7615C197.782 22.9585 197.146 22.3492 196.37 21.9338C195.595 21.5185 194.764 21.3108 193.878 21.3108C192.244 21.3108 190.998 22.0585 190.139 23.5538C189.281 25.0492 188.852 27.2231 188.852 30.0754C188.852 32.9554 189.281 35.1708 190.139 36.7215C190.998 38.2723 192.23 39.0477 193.836 39.0477C194.75 39.0477 195.622 38.8123 196.453 38.3415C197.284 37.8708 197.962 37.2338 198.489 36.4308C198.876 35.8215 199.153 35.0738 199.319 34.1877C199.513 33.2738 199.61 32.1108 199.61 30.6985V29.0785ZM233.172 41.4154C230.679 41.4154 228.422 41.0554 226.401 40.3354C224.407 39.5877 222.704 38.5354 221.292 37.1785C219.907 35.7938 218.827 34.1323 218.052 32.1938C217.304 30.2277 216.93 28.0262 216.93 25.5892C216.93 23.0692 217.332 20.7708 218.135 18.6938C218.965 16.5892 220.115 14.7892 221.582 13.2938C223.05 11.7985 224.809 10.6492 226.858 9.84615C228.907 9.01538 231.178 8.6 233.67 8.6C235.387 8.6 237.021 8.83538 238.572 9.30615C240.122 9.77692 241.798 10.5385 243.598 11.5908L244.387 9.01538H245.882V19.5246H243.805C243.252 16.9215 242.13 14.9 240.441 13.46C238.779 12.02 236.689 11.3 234.169 11.3C230.984 11.3 228.505 12.5323 226.733 14.9969C224.989 17.4338 224.116 20.8538 224.116 25.2569C224.116 29.5769 224.975 32.8862 226.692 35.1846C228.409 37.4831 230.901 38.6323 234.169 38.6323C236.522 38.6323 238.35 38.0369 239.652 36.8462C240.981 35.6277 241.645 33.9523 241.645 31.82C241.645 30.5462 241.313 29.6185 240.649 29.0369C239.984 28.4277 238.862 28.0538 237.284 27.9154V26.2538H250.742V27.9154C249.385 27.9154 248.444 28.22 247.918 28.8292C247.392 29.4108 247.129 30.4769 247.129 32.0277V37.5523C246.519 37.5523 246.007 37.58 245.592 37.6354C245.176 37.6631 244.761 37.7462 244.345 37.8846C243.958 37.9954 243.515 38.1892 243.016 38.4662C242.518 38.7431 241.895 39.1031 241.147 39.5462C239.015 40.7923 236.356 41.4154 233.172 41.4154ZM259.174 34.5615C259.174 35.6415 259.215 36.5 259.298 37.1369C259.409 37.7462 259.617 38.2169 259.921 38.5492C260.226 38.8815 260.669 39.1031 261.251 39.2138C261.832 39.2969 262.608 39.3385 263.577 39.3385V41H249.703V39.3385C250.534 39.2831 251.198 39.2 251.697 39.0892C252.195 38.9785 252.569 38.7569 252.818 38.4246C253.068 38.0923 253.22 37.6215 253.275 37.0123C253.358 36.3754 253.4 35.5308 253.4 34.4785V29.4108C253.4 27.6938 253.358 26.3231 253.275 25.2985C253.192 24.2738 253.012 23.4846 252.735 22.9308C252.458 22.3769 252.057 22.0169 251.531 21.8508C251.032 21.6569 250.368 21.56 249.537 21.56V20.1062L257.844 18.5692L258.509 23.3462H258.675C259.423 21.8785 260.406 20.7154 261.624 19.8569C262.843 18.9985 264.131 18.5692 265.488 18.5692C266.54 18.5692 267.398 18.8323 268.063 19.3585C268.728 19.8846 269.06 20.5492 269.06 21.3523C269.06 22.2385 268.797 22.9862 268.271 23.5954C267.772 24.2046 267.08 24.5092 266.194 24.5092C265.778 24.5092 265.404 24.4262 265.072 24.26C264.74 24.0938 264.435 23.9138 264.158 23.72C263.909 23.4985 263.646 23.3046 263.369 23.1385C263.12 22.9446 262.857 22.8477 262.58 22.8477C262.054 22.8477 261.555 23.1938 261.084 23.8862C260.614 24.5785 260.226 25.5062 259.921 26.6692C259.7 27.5 259.52 28.4415 259.381 29.4938C259.243 30.5185 259.174 31.5431 259.174 32.5677V34.5615ZM276.913 34.1877C276.913 35.2954 276.954 36.1815 277.037 36.8462C277.12 37.5108 277.286 38.0231 277.536 38.3831C277.785 38.7431 278.145 38.9923 278.616 39.1308C279.086 39.2415 279.723 39.3108 280.526 39.3385V41H267.442V39.3385C268.217 39.3108 268.84 39.2277 269.311 39.0892C269.809 38.9231 270.183 38.6738 270.433 38.3415C270.709 37.9815 270.889 37.4969 270.973 36.8877C271.083 36.2508 271.139 35.4477 271.139 34.4785V29.3692C271.139 27.7631 271.111 26.4477 271.056 25.4231C271 24.3708 270.931 23.6508 270.848 23.2631C270.709 22.5708 270.391 22.1138 269.893 21.8923C269.422 21.6708 268.549 21.56 267.276 21.56V20.1477L276.913 18.5692V34.1877ZM270.806 9.76307C270.806 8.84923 271.111 8.08769 271.72 7.47846C272.357 6.84154 273.119 6.52307 274.005 6.52307C274.919 6.52307 275.68 6.84154 276.289 7.47846C276.926 8.08769 277.245 8.84923 277.245 9.76307C277.245 10.6492 276.926 11.4108 276.289 12.0477C275.68 12.6569 274.919 12.9615 274.005 12.9615C273.119 12.9615 272.357 12.6569 271.72 12.0477C271.111 11.4108 270.806 10.6492 270.806 9.76307ZM289.055 34.1462C289.055 35.3092 289.083 36.2231 289.139 36.8877C289.194 37.5523 289.346 38.0646 289.595 38.4246C289.845 38.7569 290.205 38.9785 290.675 39.0892C291.146 39.2 291.797 39.2831 292.628 39.3385V41H279.502V39.3385C280.332 39.2831 280.997 39.2 281.495 39.0892C281.994 38.9785 282.368 38.7569 282.617 38.4246C282.866 38.0923 283.032 37.6215 283.115 37.0123C283.199 36.3754 283.24 35.5308 283.24 34.4785V29.3277C283.24 27.7492 283.212 26.4338 283.157 25.3815C283.129 24.3292 283.06 23.6092 282.949 23.2215C282.866 22.8615 282.755 22.5846 282.617 22.3908C282.506 22.1692 282.312 22.0031 282.035 21.8923C281.786 21.7538 281.454 21.6708 281.039 21.6431C280.623 21.5877 280.083 21.56 279.419 21.56V20.1477L287.435 18.5692L287.934 22.1831H288.183C289.346 20.8815 290.509 19.9538 291.672 19.4C292.863 18.8462 294.234 18.5692 295.785 18.5692C297.612 18.5692 299.122 18.8877 300.312 19.5246C301.503 20.1615 302.403 21.0754 303.012 22.2662H303.179C304.175 21.1031 305.366 20.2031 306.751 19.5662C308.135 18.9015 309.617 18.5692 311.195 18.5692C312.857 18.5692 314.297 18.7769 315.515 19.1923C316.762 19.6077 317.731 20.2031 318.423 20.9785C318.977 21.6154 319.379 22.4462 319.628 23.4708C319.905 24.4954 320.043 25.9215 320.043 27.7492V34.1462C320.043 35.2815 320.071 36.1815 320.126 36.8462C320.209 37.5108 320.375 38.0231 320.625 38.3831C320.874 38.7431 321.234 38.9785 321.705 39.0892C322.175 39.2 322.826 39.2831 323.657 39.3385V41H310.531V39.3385C311.362 39.3108 312.012 39.2415 312.483 39.1308C312.982 38.9923 313.355 38.7569 313.605 38.4246C313.882 38.0646 314.048 37.58 314.103 36.9708C314.186 36.3615 314.228 35.5308 314.228 34.4785V29.0369C314.228 27.5969 314.145 26.3785 313.979 25.3815C313.812 24.3846 313.549 23.5815 313.189 22.9723C312.829 22.3631 312.345 21.9338 311.735 21.6846C311.154 21.4077 310.434 21.2692 309.575 21.2692C308.606 21.2692 307.803 21.5046 307.166 21.9754C306.557 22.4462 306.045 23.0554 305.629 23.8031C304.909 25.1046 304.549 26.7246 304.549 28.6631V34.1462C304.549 35.2815 304.577 36.1815 304.632 36.8462C304.688 37.5108 304.84 38.0231 305.089 38.3831C305.339 38.7431 305.699 38.9785 306.169 39.0892C306.668 39.2 307.346 39.2831 308.205 39.3385V41H295.037V39.3385C295.868 39.2831 296.519 39.2 296.989 39.0892C297.488 38.9785 297.862 38.7569 298.111 38.4246C298.388 38.0923 298.554 37.6215 298.609 37.0123C298.692 36.3754 298.734 35.5308 298.734 34.4785V29.0369C298.734 27.5969 298.651 26.3785 298.485 25.3815C298.319 24.3846 298.042 23.5815 297.654 22.9723C297.294 22.3631 296.809 21.9338 296.2 21.6846C295.591 21.4077 294.829 21.2692 293.915 21.2692C293.002 21.2692 292.24 21.4908 291.631 21.9338C291.049 22.3769 290.565 22.9723 290.177 23.72C289.817 24.3846 289.54 25.1462 289.346 26.0046C289.152 26.8631 289.055 27.7492 289.055 28.6631V34.1462ZM335.015 18.5692C336.677 18.5692 338.242 18.86 339.709 19.4415C341.205 19.9954 342.506 20.7708 343.614 21.7677C344.749 22.7646 345.635 23.9554 346.272 25.34C346.937 26.6969 347.269 28.1923 347.269 29.8262C347.269 31.5154 346.937 33.0662 346.272 34.4785C345.635 35.8908 344.749 37.1092 343.614 38.1338C342.506 39.1585 341.205 39.9615 339.709 40.5431C338.242 41.1246 336.677 41.4154 335.015 41.4154C333.382 41.4154 331.831 41.1385 330.363 40.5846C328.895 40.0031 327.608 39.2 326.5 38.1754C325.392 37.1508 324.52 35.9323 323.883 34.52C323.246 33.08 322.928 31.5154 322.928 29.8262C322.928 28.1923 323.246 26.6831 323.883 25.2985C324.52 23.9138 325.392 22.7231 326.5 21.7262C327.608 20.7292 328.895 19.9538 330.363 19.4C331.831 18.8462 333.382 18.5692 335.015 18.5692ZM335.015 20.9785C334.185 20.9785 333.423 21.2 332.731 21.6431C332.039 22.0585 331.443 22.6538 330.945 23.4292C330.474 24.2046 330.1 25.1462 329.823 26.2538C329.574 27.3338 329.449 28.5385 329.449 29.8677C329.449 31.2523 329.574 32.4985 329.823 33.6062C330.1 34.7138 330.474 35.6554 330.945 36.4308C331.443 37.2062 332.025 37.8154 332.689 38.2585C333.382 38.6738 334.157 38.8815 335.015 38.8815C335.874 38.8815 336.649 38.6738 337.342 38.2585C338.062 37.8154 338.671 37.2062 339.169 36.4308C339.668 35.6277 340.055 34.6723 340.332 33.5646C340.609 32.4569 340.748 31.2246 340.748 29.8677C340.748 28.5385 340.609 27.3338 340.332 26.2538C340.055 25.1738 339.668 24.2462 339.169 23.4708C338.671 22.6677 338.062 22.0585 337.342 21.6431C336.649 21.2 335.874 20.9785 335.015 20.9785ZM356.58 34.1877C356.58 35.2954 356.622 36.1815 356.705 36.8462C356.788 37.5108 356.954 38.0231 357.203 38.3831C357.453 38.7431 357.813 38.9923 358.283 39.1308C358.754 39.2415 359.391 39.3108 360.194 39.3385V41H347.11V39.3385C347.885 39.3108 348.508 39.2277 348.979 39.0892C349.477 38.9231 349.851 38.6738 350.1 38.3415C350.377 37.9815 350.557 37.4969 350.64 36.8877C350.751 36.2508 350.807 35.4477 350.807 34.4785V29.3692C350.807 27.7631 350.779 26.4477 350.723 25.4231C350.668 24.3708 350.599 23.6508 350.516 23.2631C350.377 22.5708 350.059 22.1138 349.56 21.8923C349.09 21.6708 348.217 21.56 346.943 21.56V20.1477L356.58 18.5692V34.1877ZM350.474 9.76307C350.474 8.84923 350.779 8.08769 351.388 7.47846C352.025 6.84154 352.787 6.52307 353.673 6.52307C354.587 6.52307 355.348 6.84154 355.957 7.47846C356.594 8.08769 356.913 8.84923 356.913 9.76307C356.913 10.6492 356.594 11.4108 355.957 12.0477C355.348 12.6569 354.587 12.9615 353.673 12.9615C352.787 12.9615 352.025 12.6569 351.388 12.0477C350.779 11.4108 350.474 10.6492 350.474 9.76307ZM368.723 34.5615C368.723 35.6415 368.765 36.5 368.848 37.1369C368.959 37.7462 369.166 38.2169 369.471 38.5492C369.776 38.8815 370.219 39.1031 370.8 39.2138C371.382 39.2969 372.157 39.3385 373.126 39.3385V41H359.253V39.3385C360.083 39.2831 360.748 39.2 361.246 39.0892C361.745 38.9785 362.119 38.7569 362.368 38.4246C362.617 38.0923 362.769 37.6215 362.825 37.0123C362.908 36.3754 362.949 35.5308 362.949 34.4785V29.4108C362.949 27.6938 362.908 26.3231 362.825 25.2985C362.742 24.2738 362.562 23.4846 362.285 22.9308C362.008 22.3769 361.606 22.0169 361.08 21.8508C360.582 21.6569 359.917 21.56 359.086 21.56V20.1062L367.394 18.5692L368.059 23.3462H368.225C368.973 21.8785 369.956 20.7154 371.174 19.8569C372.393 18.9985 373.68 18.5692 375.037 18.5692C376.089 18.5692 376.948 18.8323 377.613 19.3585C378.277 19.8846 378.609 20.5492 378.609 21.3523C378.609 22.2385 378.346 22.9862 377.82 23.5954C377.322 24.2046 376.629 24.5092 375.743 24.5092C375.328 24.5092 374.954 24.4262 374.622 24.26C374.289 24.0938 373.985 23.9138 373.708 23.72C373.459 23.4985 373.196 23.3046 372.919 23.1385C372.669 22.9446 372.406 22.8477 372.129 22.8477C371.603 22.8477 371.105 23.1938 370.634 23.8862C370.163 24.5785 369.776 25.5062 369.471 26.6692C369.249 27.5 369.069 28.4415 368.931 29.4938C368.793 30.5185 368.723 31.5431 368.723 32.5677V34.5615ZM397.974 37.1369C395.454 39.9892 392.311 41.4154 388.545 41.4154C386.828 41.4154 385.263 41.1523 383.851 40.6262C382.466 40.0723 381.276 39.3108 380.279 38.3415C379.282 37.3446 378.506 36.1677 377.953 34.8108C377.399 33.4538 377.122 31.9446 377.122 30.2831C377.122 28.5662 377.413 27.0015 377.994 25.5892C378.576 24.1492 379.393 22.9169 380.445 21.8923C381.525 20.84 382.785 20.0231 384.225 19.4415C385.693 18.86 387.299 18.5692 389.043 18.5692C391.979 18.5692 394.263 19.3585 395.897 20.9369C397.531 22.5154 398.348 24.7308 398.348 27.5831C398.348 28.0262 398.279 28.3031 398.14 28.4138C398.002 28.4969 397.614 28.5385 396.977 28.5385H383.602C383.491 28.7877 383.436 29.2446 383.436 29.9092C383.436 32.6231 384.017 34.7692 385.18 36.3477C386.371 37.9262 387.977 38.7154 389.999 38.7154C391.162 38.7154 392.311 38.4523 393.446 37.9262C394.61 37.4 395.731 36.6523 396.811 35.6831L397.974 37.1369ZM389.916 26.2123C391.023 26.2123 391.73 26.1569 392.034 26.0462C392.366 25.9077 392.533 25.6031 392.533 25.1323C392.533 23.9138 392.186 22.9169 391.494 22.1415C390.802 21.3662 389.93 20.9785 388.877 20.9785C387.686 20.9785 386.62 21.4769 385.679 22.4738C384.765 23.4431 384.17 24.6892 383.893 26.2123H389.916Z" fill="#2C1810"/>
<rect x="347.625" y="8.77885" width="11.1336" height="34.4423" rx="1.29808" stroke="#2C1810" stroke-width="1.55769"/>
<rect x="0.967343" y="0.558058" width="11.7255" height="34.5849" rx="1.29808" transform="matrix(0.969372 -0.245595 0.272648 0.962114 358.957 10.6242)" stroke="#2C1810" stroke-width="1.55769"/>
</svg>
